<svg xmlns="http://www.w3.org/2000/svg" xmlns:xlink="http://www.w3.org/1999/xlink" viewBox="0 0 310.72 108.16"><defs><style>.cls-1{fill:#041742;}.cls-2{fill:#fff;}.cls-3{fill:url(#radial-gradient);}</style><radialGradient id="radial-gradient" cx="106.31" cy="41.41" r="38.26" gradientUnits="userSpaceOnUse"><stop offset="0.1" stop-color="#26db8d"/><stop offset="0.26" stop-color="#23d29a"/><stop offset="0.56" stop-color="#1abbbb"/><stop offset="0.89" stop-color="#0e9de5"/></radialGradient></defs><title>Asset 5</title><g id="Layer_2" data-name="Layer 2"><g id="Layer_1-2" data-name="Layer 1"><rect class="cls-1" width="310.72" height="108.16"/><polygon class="cls-2" points="47.34 52.02 35.7 52.02 35.7 39.56 30.1 39.56 30.1 69.77 35.7 69.77 35.7 57.2 47.34 57.2 47.34 69.77 52.95 69.77 52.95 39.56 47.34 39.56 47.34 52.02"/><path class="cls-2" d="M139.79,56.83a10.47,10.47,0,0,0,2.5-7.08,10.37,10.37,0,0,0-2.49-7.1,9.73,9.73,0,0,0-7.67-3.09H123V69.77h5.61V59.91h2.55l7.35,9.86h6.46L136.86,59A8.68,8.68,0,0,0,139.79,56.83Zm-2.68-7.08a5.1,5.1,0,0,1-1.17,3.62,4.82,4.82,0,0,1-3.81,1.4h-3.56v-10h3.56A4.84,4.84,0,0,1,136,46.1,5.19,5.19,0,0,1,137.11,49.75Z"/><rect class="cls-2" x="157.28" y="39.56" width="5.61" height="30.21"/><polygon class="cls-2" points="179.21 39.56 179.21 45.17 190.51 45.17 176.55 69.77 200.51 69.77 200.51 64.16 186.56 64.16 200.51 39.56 179.21 39.56"/><polygon class="cls-2" points="213.84 69.77 232.38 69.77 232.38 64.59 219.45 64.59 219.45 56.6 230.09 56.6 230.09 51.43 219.45 51.43 219.45 44.7 232.38 44.7 232.38 39.56 213.84 39.56 213.84 69.77"/><polygon class="cls-2" points="264.14 58.49 249.94 39.56 245.83 39.56 245.83 69.77 251.44 69.77 251.44 50.8 265.71 69.77 269.79 69.77 269.79 39.56 264.14 39.56 264.14 58.49"/><path class="cls-3" d="M106.31,41.43h0l-3.72,5.76A16.54,16.54,0,0,1,80.36,69.43L74.6,73.16a22.74,22.74,0,0,0,31.71-31.73Z"/><path class="cls-3" d="M87.82,66.05a11.42,11.42,0,0,0,11.23-9.34A26.18,26.18,0,0,0,78.35,61,11.41,11.41,0,0,0,87.82,66.05Z"/><path class="cls-2" d="M93.45,54.05a27.54,27.54,0,0,1,5.79.62h0a11.42,11.42,0,1,0-22.84,0,11,11,0,0,0,.11,1.52h0a25.12,25.12,0,0,0-4.29,4,16.54,16.54,0,0,1,23-20.28L101,36.16a22.73,22.73,0,0,0-31.5,32,27.38,27.38,0,0,1,3.89-5.36,32.86,32.86,0,0,1,4-3.52A27.16,27.16,0,0,1,93.45,54.05Z"/><path class="cls-2" d="M273.79,43.67V40.19h-1.24v-.63h3.2v.63h-1.24v3.48Z"/><path class="cls-2" d="M279.91,43.67V40.62l-1.26,3.05h-.31l-1.26-3.05v3.05h-.72V39.56h1l1.11,2.7,1.12-2.7h1v4.11Z"/></g></g></svg>